<svg width="12" height="23" viewBox="0 0 12 23" fill="none" xmlns="http://www.w3.org/2000/svg">
<path d="M7.49423 0.265396C5.92394 0.510395 4.68843 1.43021 4.03481 2.84002C3.56452 3.863 3.46887 4.48624 3.46887 6.60526V8.10534H2.11778C1.3685 8.10534 0.718865 8.12253 0.667053 8.14402C0.611256 8.16981 0.527561 8.22998 0.48372 8.28156C0.400024 8.37612 0.400024 8.40621 0.400024 10.3576C0.400024 12.1714 0.407995 12.3477 0.471764 12.4293C0.607271 12.6142 0.659082 12.6185 2.08988 12.6185H3.46887V17.2605V21.9026L3.58444 22.0401L3.70002 22.182L5.55727 22.1949C7.19531 22.2035 7.43046 22.1992 7.53807 22.139C7.78517 22.0015 7.77321 22.2164 7.77321 17.1961V12.6185H9.36742C10.5152 12.6185 10.9855 12.6056 11.0613 12.5669C11.2805 12.4594 11.2805 12.4422 11.2805 10.3447V8.40621L11.1649 8.26867L11.0493 8.12683L9.40727 8.11393L7.76923 8.10104L7.78118 6.71271L7.79314 5.32869L7.91271 5.0751C8.04423 4.80001 8.26343 4.61519 8.55836 4.52922C8.64205 4.50343 9.23191 4.47764 9.8656 4.46905C10.5033 4.45615 11.0652 4.43896 11.1131 4.42607C11.1649 4.41317 11.2526 4.353 11.3044 4.29282L11.4 4.18107V2.32424C11.4 0.501799 11.4 0.467413 11.3163 0.372852C11.2725 0.321274 11.1888 0.261099 11.133 0.23531C10.9736 0.170835 7.9406 0.196625 7.49423 0.265396Z" fill="white"/>
</svg>
