<svg width="50.000000" height="50.000000" viewBox="0 0 50 50" fill="none" xmlns="http://www.w3.org/2000/svg" xmlns:xlink="http://www.w3.org/1999/xlink">
	<desc>
			Created with Pixso.
	</desc>
	<defs/>
	<path id="Vector" d="M38.52 48.43C38.15 48.18 37.35 47.63 36.24 46.93L39.28 45.02C39.3 45.01 39.32 44.99 39.33 44.98C40.48 44.14 41.36 42.99 41.88 41.67L43.76 36.95C43.83 36.76 43.83 36.54 43.75 36.35C43.67 36.16 43.51 36.01 43.32 35.93L41.14 35.07L43.73 28.53C43.83 28.57 43.93 28.59 44.03 28.59C44.13 28.59 44.23 28.57 44.33 28.53C44.42 28.49 44.51 28.43 44.58 28.35C44.65 28.28 44.71 28.19 44.75 28.1L48.2 19.38C48.28 19.19 48.27 18.97 48.19 18.78C48.11 18.59 47.95 18.44 47.76 18.37L44.13 16.93C43.94 16.85 43.72 16.85 43.53 16.94C43.34 17.02 43.19 17.17 43.12 17.37L39.66 26.08C39.59 26.27 39.59 26.49 39.67 26.68C39.75 26.87 39.91 27.02 40.1 27.1L37.51 33.63L35.33 32.77C35.14 32.69 34.92 32.7 34.73 32.78C34.54 32.86 34.39 33.01 34.32 33.21L32.56 37.63C31.97 39.14 31.87 40.81 32.28 42.37L32.62 44.78C28.53 42.51 23.13 40.03 18.75 39.81L18.75 36.31L23.04 32.9C23.63 32.96 24.22 33 24.81 33C25.31 33 25.81 32.97 26.31 32.92C29.19 32.61 31.4 31.41 32.7 29.45C35.71 24.9 33.75 16.57 33.67 16.22C33.62 16.03 33.5 15.86 33.34 15.75C33.17 15.64 32.98 15.6 32.78 15.63C32.42 15.69 23.99 17.13 20.98 21.68C19.68 23.65 19.43 26.15 20.27 28.92C20.61 30 21.06 31.04 21.63 32.02L18.75 34.31L18.75 20.03C19.76 19.52 20.71 18.91 21.59 18.19C23.82 16.35 25 14.13 25 11.77C25 6.31 18.76 0.45 18.5 0.2C18.35 0.07 18.16 0 17.96 0C17.77 0 17.58 0.07 17.43 0.2C16.26 1.33 15.18 2.56 14.21 3.86C12.04 6.79 10.93 9.45 10.93 11.77C10.93 14.13 12.11 16.35 14.34 18.19C15.22 18.91 16.17 19.52 17.18 20.03L17.18 35.1L14.3 32.8C14.87 31.83 15.32 30.78 15.66 29.7C16.5 26.93 16.25 24.43 14.95 22.47C11.94 17.92 3.51 16.47 3.15 16.41C2.95 16.38 2.75 16.42 2.59 16.53C2.42 16.64 2.31 16.81 2.26 17C2.18 17.35 0.21 25.68 3.23 30.23C4.53 32.2 6.74 33.4 9.61 33.7C10.11 33.76 10.62 33.78 11.12 33.78C11.71 33.78 12.3 33.75 12.88 33.68L17.18 37.09L17.18 39.84C17.16 39.84 17.13 39.84 17.1 39.84C13.72 40.18 10.11 41.78 6.36 44.59C4.81 45.75 3.35 47.04 2 48.43L0 48.43L0 50L50 50L50 48.43L38.52 48.43ZM30.42 25.16L27.6 24.98C27.45 24.97 27.3 24.92 27.18 24.83C27.06 24.73 26.96 24.61 26.91 24.46L25.99 21.8L27.47 21.29L28.22 23.46L30.51 23.6L30.42 25.16ZM24.97 23.34L25.88 26.54L29.2 26.56L29.19 28.12L25.28 28.1C25.12 28.1 24.95 28.04 24.82 27.94C24.68 27.83 24.58 27.69 24.54 27.53L23.47 23.77L24.97 23.34ZM5.42 24.38L7.71 24.24L8.46 22.07L9.94 22.58L9.02 25.24C8.97 25.39 8.88 25.51 8.75 25.61C8.63 25.7 8.48 25.76 8.33 25.77L5.52 25.94L5.42 24.38ZM6.74 28.9L6.73 27.34L10.05 27.32L10.96 24.12L12.47 24.55L11.39 28.31C11.35 28.47 11.25 28.62 11.12 28.72C10.98 28.82 10.82 28.88 10.65 28.88L6.74 28.9ZM15.31 11.09L17.96 13.08L20.62 11.09L21.56 12.34L18.43 14.68C18.3 14.78 18.13 14.84 17.96 14.84C17.79 14.84 17.63 14.78 17.5 14.68L14.37 12.34L15.31 11.09ZM15.19 9.24L16.05 7.94L17.96 9.21L19.87 7.94L20.74 9.24L18.4 10.8C18.27 10.89 18.12 10.93 17.96 10.93C17.81 10.93 17.66 10.89 17.53 10.8L15.19 9.24ZM9.37 46.87C9.37 46.14 9.66 45.45 10.17 44.94C10.68 44.42 11.38 44.14 12.1 44.14C12.83 44.14 13.53 44.42 14.04 44.94C14.55 45.45 14.84 46.14 14.84 46.87L13.28 46.87C13.28 46.56 13.15 46.26 12.93 46.04C12.71 45.82 12.42 45.7 12.1 45.7C11.79 45.7 11.5 45.82 11.28 46.04C11.06 46.26 10.93 46.56 10.93 46.87L9.37 46.87ZM15.62 45.7C15.62 44.97 15.91 44.28 16.42 43.76C16.93 43.25 17.63 42.96 18.35 42.96C19.08 42.96 19.78 43.25 20.29 43.76C20.8 44.28 21.09 44.97 21.09 45.7L19.53 45.7C19.53 45.39 19.4 45.09 19.18 44.87C18.96 44.65 18.67 44.53 18.35 44.53C18.04 44.53 17.75 44.65 17.53 44.87C17.31 45.09 17.18 45.39 17.18 45.7L15.62 45.7ZM26.56 46.87C26.56 46.56 26.43 46.26 26.21 46.04C25.99 45.82 25.7 45.7 25.39 45.7C25.07 45.7 24.78 45.82 24.56 46.04C24.34 46.26 24.21 46.56 24.21 46.87L22.65 46.87C22.65 46.14 22.94 45.45 23.45 44.94C23.97 44.42 24.66 44.14 25.39 44.14C26.11 44.14 26.81 44.42 27.32 44.94C27.83 45.45 28.12 46.14 28.12 46.87L26.56 46.87ZM41.55 27.67L42.28 27.96L39.69 34.5L38.96 34.21L41.55 27.67ZM34.01 38.21L35.48 34.51L42.02 37.1L40.43 41.1C40.02 42.14 39.33 43.04 38.43 43.71L34.8 45.99C34.78 46 34.77 46.01 34.76 46.02C34.62 45.94 34.48 45.85 34.33 45.77L33.82 42.11C33.82 42.08 33.81 42.04 33.8 42.01C33.46 40.76 33.54 39.42 34.01 38.21L34.01 38.21Z" fill="#FFFFFF" fill-opacity="1.000000" fill-rule="nonzero"/>
	<path id="Vector" d="M33.59 11.71C34.21 11.71 34.81 11.53 35.32 11.19C35.84 10.84 36.24 10.36 36.48 9.79C36.71 9.21 36.77 8.59 36.65 7.98C36.53 7.37 36.24 6.82 35.8 6.38C35.36 5.94 34.8 5.64 34.2 5.52C33.59 5.4 32.96 5.47 32.39 5.7C31.82 5.94 31.33 6.34 30.99 6.85C30.65 7.37 30.46 7.97 30.46 8.59C30.46 9.42 30.79 10.21 31.38 10.8C31.97 11.38 32.76 11.71 33.59 11.71Z" fill="#00730C" fill-opacity="1.000000" fill-rule="nonzero"/>
	<path id="Vector" d="M1.13 8.23C1.23 8.33 1.35 8.4 1.49 8.44C1.63 8.47 1.77 8.47 1.9 8.43L4.35 7.71L6.81 8.43C6.94 8.47 7.08 8.47 7.22 8.44C7.36 8.4 7.48 8.33 7.58 8.23C7.68 8.14 7.75 8.01 7.78 7.88C7.82 7.74 7.82 7.6 7.78 7.46L7.06 5.01L7.78 2.56C7.82 2.42 7.82 2.28 7.78 2.15C7.75 2.01 7.68 1.89 7.58 1.79C7.48 1.69 7.36 1.62 7.22 1.58C7.08 1.55 6.94 1.55 6.81 1.59L4.35 2.31L1.9 1.59C1.77 1.55 1.63 1.55 1.49 1.58C1.35 1.62 1.23 1.69 1.13 1.79C1.03 1.89 0.96 2.01 0.93 2.15C0.89 2.28 0.89 2.42 0.93 2.56L1.65 5.01L0.93 7.46C0.89 7.6 0.89 7.74 0.93 7.88C0.96 8.01 1.03 8.14 1.13 8.23Z" fill="#00730C" fill-opacity="1.000000" fill-rule="nonzero"/>
	<path id="Vector" d="M25.78 35.93L27.34 35.93L27.34 37.5L25.78 37.5L25.78 35.93Z" fill="#00730C" fill-opacity="1.000000" fill-rule="evenodd"/>
</svg>
